<svg width="151" height="150" fill="none" xmlns="http://www.w3.org/2000/svg"><path d="M72.611 0h15.375c.993.129 1.94.782 2.215 1.775.225 1.058.123 2.148.138 3.22 5.745.015 11.49-.015 17.235.012 1.348-.082 2.692.946 2.727 2.347.118 2.545-.017 5.103.062 7.652 5.801-.012 11.601-.032 17.402.009 1.521-.05 2.71 1.377 2.57 2.853.008 34.67-.003 69.343.008 104.013-.032 1.198.2 2.634-.755 3.557-.97 1.042-2.828.94-3.68-.197-.753-.952-.539-2.244-.574-3.369.008-33.955.003-67.91.003-101.865-20.669-.006-41.335 0-62.004-.003-.733-.012-1.527-.103-2.092-.621-1.046-.841-1.16-2.567-.234-3.54.565-.673 1.485-.855 2.323-.846 14.004-.006 28.008.003 42.011-.003.003-1.667.003-3.33-.002-4.995-5.699-.006-11.4.006-17.101-.003-1.093.067-2.265-.469-2.669-1.535-.384-1.107-.193-2.312-.231-3.46-3.331-.006-6.665-.003-9.997-.003-.058 1.233.217 2.57-.354 3.715-.48.943-1.582 1.333-2.587 1.283-5.687.009-11.373-.003-17.06.003-.026 2.508.041 5.016-.029 7.52-.006 1.11-.814 2.171-1.916 2.382-.973.173-1.966.094-2.944.103-5.036.003-10.072-.003-15.109.003-.002 42.36.003 84.718-.002 127.075.14 1.427-.903 2.789-2.35 2.918H2.68a2.638 2.638 0 0 1-2.339-2.44v-.235c.147-1.169 1.09-2.238 2.312-2.279 2.558-.111 5.121-.009 7.684-.047.004-3.416 0-6.832 0-10.248-3.518-.788-6.7-3.05-8.416-6.24-.982-1.72-1.445-3.68-1.58-5.643v-.882c.138-3.178.311-6.357.665-9.521.7-5.268 1.503-10.614 3.715-15.495.929-2.057 2.154-4.04 3.932-5.47 2.1-1.77 5.317-1.972 7.646-.527 1.89 1.233 3.25 3.12 4.243 5.118 2.065 4.195 3.058 8.824 3.709 13.427.474 2.633.653 5.305.876 7.968.085 2.951.553 6-.42 8.863-1.326 4.224-5.062 7.479-9.371 8.405.002 3.413.002 6.829.002 10.245 5.002.006 10.002.003 15.003 0 0-42.281.006-84.565-.003-126.847-.002-.829.085-1.752.718-2.361.598-.66 1.527-.809 2.373-.8 5.637.003 11.27.009 16.908 0 .035-2.549-.065-5.103.043-7.652.041-1.374 1.354-2.402 2.687-2.332 5.757-.027 11.517.003 17.276-.012.012-1.07-.085-2.156.135-3.21C70.736.808 71.656.174 72.611 0ZM11.864 95.303c-1.743 1.128-2.356 3.234-3.167 5.027-2.382 7.011-3.205 14.458-3.343 21.832-.09 2.502 1.108 5.025 3.185 6.448 2.294 1.664 5.56 1.814 8.004.381 2.226-1.254 3.717-3.703 3.776-6.261.012-5.018-.48-10.031-1.377-14.964-.768-3.736-1.635-7.541-3.58-10.864-.688-1.148-2.104-2.449-3.498-1.6Z" fill="#fff" fill-opacity=".2"/><path d="M41.061 25.787c.58-.653 1.497-.794 2.326-.785 24.624 0 49.248.003 73.872-.003.894-.02 1.881.164 2.467.905.756.841.592 2.051.621 3.091-.017 32.722.003 65.443-.011 98.165.131 1.447-1.035 2.848-2.523 2.816-4.151.049-8.306.008-12.457.017-.029 5.001-.003 10.002-.015 15.003 3.481.012 6.964 0 10.445.009-.829-2.417-.399-5.227 1.242-7.204 1.652-2.08 4.436-3.117 7.052-2.693.703-1.007 1.412-2.033 2.387-2.8 2.731-2.318 6.747-2.933 10.061-1.594 2.13.808 3.879 2.431 5.033 4.38 1.89-.235 3.885.099 5.461 1.216 1.984 1.294 3.188 3.577 3.319 5.923v.551c-.12 3.8-3.404 7.087-7.201 7.216H42.722c-1.462-.105-2.522-1.485-2.379-2.921-.008-39.261.006-78.524-.008-117.788.035-1.178-.19-2.584.726-3.504Zm4.278 4.219c.002 4.995.002 9.993 0 14.988 3.33.009 6.665 0 9.996.003.002-4.998.002-9.996 0-14.994-3.331.003-6.665-.006-9.996.003Zm14.985.038c.047 4.978.017 9.958.015 14.936 3.334.04 6.665.002 9.999.02.008-5.001.008-10 0-15-3.337.032-6.677-.056-10.014.044Zm15.026-.047c0 5.007-.044 10.014.02 15.02 3.308-.029 6.613-.035 9.92.003.094-5.006.047-10.016.024-15.023-3.322.009-6.641.009-9.964 0ZM90.341 30c-.005 5-.005 9.999 0 14.997 3.334-.006 6.671.012 10.005-.006-.006-4.995-.003-9.99 0-14.982-3.334-.015-6.67-.003-10.005-.009Zm15.003.003c-.003 4.998-.003 9.996 0 14.994 3.331 0 6.662.003 9.994-.003.002-4.995.002-9.993 0-14.988-3.332-.006-6.663-.003-9.994-.003ZM45.341 49.998c-.002 5.001-.002 10.002 0 15.003 3.334 0 6.666.006 9.996 0 0-4.998-.005-9.996.003-14.994-3.334-.02-6.665-.006-9.999-.009Zm15.006 0c-.003 5.001-.003 10.002 0 15.003 3.331.003 6.662 0 9.994 0 .002-5.001.002-10.002.002-15.003-3.334 0-6.665-.003-9.996 0Zm14.997 0c-.003 5.001-.005 10.005 0 15.006 3.331-.006 6.663 0 9.994-.003V50c-3.331-.006-6.663-.003-9.994-.003Zm14.995.003v15c3.334.003 6.668 0 10.004 0 .003-5.001 0-10.002 0-15.003-3.337 0-6.67-.003-10.005.003Zm15.002 14.997c3.334.006 6.668.009 9.999 0-.005-5.001.006-10.002-.005-15-3.329-.003-6.657.003-9.985-.003-.017 5.001 0 10.002-.009 15.003Zm-60 5.007c-.002 4.995-.002 9.993 0 14.991 3.334-.006 6.666.018 10-.015-.01-4.992 0-9.984-.006-14.976-3.331-.006-6.663-.003-9.994 0Zm15.006 0c-.003 4.995-.003 9.993 0 14.991 3.331.003 6.662 0 9.994 0 .002-4.998.002-9.996 0-14.991-3.332-.003-6.663-.006-9.994 0Zm14.997 0c-.003 4.995-.003 9.993 0 14.991 3.331 0 6.663.003 9.994-.003.003-4.995.003-9.993 0-14.988-3.331-.006-6.663-.003-9.994 0Zm14.995 0c-.003 4.995-.003 9.993 0 14.988 3.334.006 6.668.003 10.001.003.006-4.998.003-9.996.003-14.991-3.334-.003-6.67-.006-10.005 0Zm15.005.006c-.003 4.989.006 9.978-.005 14.968 3.336.023 6.673.04 10.01-.01-.014-4.98-.014-9.963-.003-14.944-3.334-.047-6.668-.02-10.002-.014Zm-60 19.986c-.008 5.001-.003 10.002-.003 15.003 3.329.006 6.654-.009 9.982.009.032-5.004.006-10.008.014-15.012-3.33-.003-6.662 0-9.993 0Zm15.003 0c-.003 5.001 0 10.002 0 15.003 3.331.003 6.662.003 9.996 0-.002-5.001.003-10.002-.002-15.003-3.332 0-6.663-.003-9.994 0Zm14.997 0a8430.34 8430.34 0 0 0 0 15.003c3.329 0 6.66.003 9.99 0 .004-5.001.007-10.002 0-15.003-3.33-.003-6.659 0-9.99 0Zm14.995 0c-.003 5.001 0 10.002 0 15 3.334.006 6.668.003 10.004.003 0-5.001.003-10.002 0-15.003-3.337 0-6.67-.003-10.005 0Zm15.005.003c.003 5.001-.008 10.002.003 15.003 3.331-.003 6.659-.003 9.988 0 .011-5.001.003-10.002.005-15.003-3.331-.006-6.665-.006-9.996 0Zm-60.005 20.004c.002 4.995.005 9.99-.003 14.985 3.334.018 6.665.003 9.999.006.002-4.998.005-9.996-.003-14.994-3.331.003-6.662-.006-9.993.003Zm14.982.044c.073 4.986-.023 9.972.05 14.959 3.322-.024 6.644-.006 9.967-.009.005-5.001.008-9.999 0-15-3.34.038-6.68-.062-10.017.05Zm15.032-.053c-.02 5.004-.02 10.005 0 15.009 3.314-.006 6.627-.026 9.944.012.079-5.007.052-10.02.011-15.027-3.32.021-6.636.012-9.955.006Zm14.988.006c-.005 4.998-.005 9.996 0 14.997 3.334-.009 6.671.012 10.005-.012-.008-4.992 0-9.987-.003-14.979-3.334-.012-6.668-.003-10.002-.006Zm15.006.003c-.006 4.995-.003 9.993-.003 14.991 3.331.003 6.665.003 9.996 0 0-4.998.003-9.996-.002-14.991-3.332-.006-6.66-.003-9.991 0Zm-60.006 19.992c-.002 5.001-.002 10.002 0 15.006 3.331-.003 6.666.003 9.996-.003.003-4.995-.011-9.99.01-14.982-3.335-.044-6.672-.009-10.006-.021Zm15.006.003c-.003 5.001-.003 9.999 0 15 3.331.003 6.662.003 9.996 0 0-5.001 0-10.002-.002-15.003-3.332 0-6.663-.003-9.994.003Zm14.997-.003c-.003 5.001-.003 10.005 0 15.006 3.331-.003 6.663 0 9.994-.003 0-5.001.003-10.002-.003-15-3.331-.003-6.662-.003-9.99-.003Zm14.995.003c0 5.001 0 9.999-.003 15 3.337.006 6.67 0 10.007 0v-15c-3.337-.003-6.67-.006-10.005 0Zm41.08 5.221c-1.407.492-2.663 1.541-3.159 2.976-.383.982-.829 2.145-1.96 2.447-1.429.591-2.636-1.026-4.072-.531-1.509.32-2.344 2.224-1.564 3.557.495.996 1.664 1.392 2.716 1.336 6.457-.015 12.911.02 19.365-.018 1.198.015 2.361-.858 2.525-2.074.381-1.614-1.304-3.135-2.871-2.836-.967.214-1.869.952-2.897.601-1.169-.241-1.676-1.407-2.051-2.408-.797-2.388-3.63-3.838-6.032-3.05Z" fill="#fff" fill-opacity=".2"/></svg>