<svg width="150" height="150" fill="none" xmlns="http://www.w3.org/2000/svg"><path d="M23.61 0h102.744c1.31.105 2.35 1.286 2.25 2.604.033 6.223-.017 12.446.024 18.669 5.81 6.916 11.572 13.872 17.379 20.792.433.483.756 1.066.849 1.713 1.049 5.798 2.051 11.602 3.144 17.39v.727c-.167 4.51-2.203 8.939-5.675 11.848-1.623 1.427-3.565 2.417-5.581 3.161.006 23.491.012 46.981-.003 70.471.091 1.283-.864 2.44-2.133 2.625H35.3c-1.313-.088-2.461-1.301-2.25-2.646.111-1.315 1.427-2.203 2.692-2.083 17.136-.011 34.275-.002 51.413-.005.015-18.05-.017-36.1.015-54.15-.073-1.356 1.107-2.56 2.467-2.496 10.837-.044 21.674.006 32.51-.023.926 0 2.01-.01 2.678.75.639.6.686 1.526.692 2.346-.015 17.857 0 35.713-.009 53.57 2.836.008 5.669.003 8.505.003.003-22.538 0-45.074 0-67.612-1.992 0-4.017-.038-5.945-.6-3.925-1.055-7.336-3.698-9.489-7.128-2.42 3.89-6.495 6.723-11.03 7.473-4.07.572-8.438.302-12.065-1.793-2.44-1.333-4.459-3.34-5.953-5.671-2.584 4.11-7.01 7.063-11.868 7.579-2.997.272-6.108.21-8.956-.862-3.404-1.227-6.299-3.674-8.232-6.717-2.523 4.034-6.824 6.937-11.56 7.543-3.543.387-7.278.22-10.533-1.359-2.871-1.318-5.274-3.533-6.958-6.19-2.15 3.427-5.56 6.067-9.484 7.122-1.93.565-3.958.603-5.953.603 0 22.538-.003 45.074 0 67.612 3.859.011 7.717-.018 11.573.011 1.14-.07 2.288.683 2.513 1.831.366 1.371-.744 2.757-2.115 2.892h-14.49c-1.597-.132-2.426-1.752-2.224-3.211.027-23.291-.017-46.579.02-69.867-3.468-1.23-6.618-3.483-8.61-6.612C.987 67.837.17 64.884 0 61.925v-.706c.993-5.359 1.94-10.726 2.9-16.09.197-.996.238-2.106.955-2.898C9.59 35.367 15.32 28.497 21.06 21.64c.307-.287.34-.703.334-1.099-.003-5.974-.018-11.95.002-17.927C21.293 1.303 22.313.13 23.61 0Zm2.511 4.734c0 4.846-.003 9.692 0 14.537h97.758c.003-4.845 0-9.69 0-14.537-32.587 0-65.171-.003-97.758 0Zm-.87 19.275c-4.887 5.85-9.774 11.701-14.654 17.554 7.186 0 14.373.003 21.56 0 2.873-5.853 5.762-11.698 8.633-17.554-5.18-.006-10.36-.003-15.539 0Zm20.818 0c-2.877 5.85-5.76 11.701-8.628 17.554 7.313 0 14.628.003 21.94 0 .889-5.853 1.785-11.704 2.67-17.557-5.326 0-10.656-.003-15.982.003Zm20.775 0c-.89 5.85-1.779 11.704-2.663 17.554 7.213 0 14.425.003 21.641 0-.89-5.85-1.775-11.704-2.666-17.554-5.437-.003-10.875-.006-16.312 0Zm21.105-.003c.885 5.853 1.782 11.704 2.67 17.554 7.312.01 14.627.003 21.94.003-2.869-5.853-5.751-11.704-8.628-17.554-5.326-.006-10.656-.003-15.982-.003Zm21.261.003c2.871 5.856 5.76 11.701 8.634 17.554 7.189.003 14.379 0 21.568 0-4.884-5.853-9.773-11.707-14.663-17.557-5.18.003-10.359-.003-15.539.003ZM7.491 46.319c-.864 4.989-1.784 9.97-2.669 14.955-.275 4.75 2.98 9.364 7.442 10.922 2.446.873 5.127.859 7.664.457 4.022-.794 7.47-3.934 8.604-7.878.469-1.336.416-2.765.613-4.151.594-4.775 1.204-9.55 1.798-14.326-7.819.014-15.635-.026-23.452.02Zm28.236-.018c-.635 4.98-1.265 9.964-1.88 14.947-.188 4.263 2.352 8.47 6.158 10.371 2.443 1.3 5.308 1.462 8.013 1.175 4.359-.44 8.273-3.683 9.527-7.878.442-1.271.492-2.63.589-3.96.26-4.885.53-9.771.788-14.655-7.732-.003-15.463-.003-23.194 0Zm27.935 0c-.252 5.071-.58 10.14-.794 15.21-.05 4.77 3.223 9.332 7.773 10.779 2.584.817 5.408.797 8.036.208 3.641-.94 6.715-3.826 7.866-7.41.603-1.704.665-3.547.518-5.334-.246-4.482-.486-8.968-.726-13.453-7.556-.006-15.114-.006-22.673 0Zm27.416 0c.293 5.261.545 10.53.87 15.79.156 3.81 2.397 7.442 5.725 9.294 2.93 1.71 6.527 1.81 9.782 1.18 5.066-1.127 8.95-6.093 8.701-11.293-.621-4.993-1.254-9.982-1.881-14.971-7.734-.003-15.465-.003-23.197 0Zm27.979-.003c.688 5.745 1.511 11.475 2.1 17.232.516 2.833 2.13 5.447 4.465 7.14 2.502 1.916 5.772 2.458 8.848 2.186a11.223 11.223 0 0 0 6.65-2.61c2.572-2.096 4.134-5.38 4.09-8.7-.858-5.08-1.84-10.139-2.692-15.222-7.82-.061-15.642-.009-23.461-.026ZM91.895 93.34c-.005 2.628-.002 5.256-.002 7.884 9.627.003 19.251.02 28.878-.009-.012-2.625 0-5.25-.006-7.875-9.624-.003-19.248-.003-28.87 0Zm0 12.636c-.005 13.095-.005 26.194 0 39.29 9.622 0 19.246.003 28.87 0 .003-13.096.003-26.195 0-39.29-9.624-.003-19.248-.003-28.87 0Z" fill="#fff" fill-opacity=".2"/><path d="M33.179 9.794c.922-.255 1.892-.144 2.838-.164 26.373 0 52.747.006 79.123-.003 1.063.02 2.326-.15 3.152.677.964.858.967 2.522.012 3.39-.829.831-2.095.661-3.159.685-26.959-.015-53.915.006-80.87-.009-1.053.056-2.163-.51-2.517-1.544-.487-1.178.21-2.651 1.42-3.032ZM27.387 88.67c.826-.117 1.664-.059 2.496-.067 15.527.005 31.055-.006 46.582.005 1.427-.143 2.798 1.04 2.698 2.511.02 9.856.018 19.717.003 29.572.114 1.477-1.257 2.693-2.695 2.555-16.117.006-32.236.003-48.352 0-1.444.141-2.821-1.072-2.704-2.558a8298.2 8298.2 0 0 1 .003-29.56c-.059-1.16.788-2.314 1.969-2.458Zm2.757 4.67c.011 8.396-.038 16.793.023 25.186 14.751-.026 29.502-.011 44.256-.005.04-8.394.009-16.788.015-25.181-14.766-.003-29.532-.003-44.294 0Z" fill="#fff" fill-opacity=".2"/></svg>