<svg width="150" height="150" fill="none" xmlns="http://www.w3.org/2000/svg"><path d="M6.882 0h56.387c2.62.337 5.048 2.019 6.088 4.474.818 1.725.624 3.673.645 5.522 10.339.006 20.68.006 31.022 0 10.33 10.28 20.608 20.616 30.926 30.908.238.279.615.542.548.964.003 12.71.003 25.418 0 38.13-1.667.003-3.331.006-4.995-.003-.009-11.663.003-23.329-.006-34.992-9.987.006-19.975-.023-29.962.015-.082-10.005-.009-20.01-.038-30.018-9.164 0-18.328 0-27.492.003-.015 20 0 40.002-.006 60.006-.017 1.83.176 3.756-.621 5.47-1.146 2.736-4.028 4.59-6.993 4.52-13.292.006-26.587-.003-39.882.003-.006 19.998-.003 39.996 0 59.997 34.998.003 69.996.003 104.994-.003.003-9.996.006-19.992 0-29.988 1.667-.015 3.334-.009 5.001-.006.006 11.666 0 23.332.003 34.998H17.499V85.002c-3.49-.026-6.981.041-10.47-.03C3.453 84.836.4 81.813 0 78.297V6.738C.375 3.234 3.357.281 6.882 0Zm.21 5.045c-1.22.158-2.153 1.342-2.088 2.563-.009 23.25-.006 46.5 0 69.75-.106 1.421 1.166 2.722 2.593 2.637 17.783.015 35.566 0 53.346.006.762-.015 1.538.064 2.283-.117 1.08-.308 1.828-1.406 1.77-2.523.01-22.76 0-45.521.005-68.282-.003-.685.032-1.374-.059-2.057-.19-1.174-1.333-2.068-2.516-2.015-17.775-.015-35.552 0-53.33-.009-.667.003-1.338-.03-2.003.047Zm95.412 13.5c-.009 7.148 0 14.297-.006 21.445 7.151.024 14.303.003 21.454.009a6757.508 6757.508 0 0 0-21.448-21.454Z" fill="#fff" fill-opacity=".2"/><path d="M7.503 7.503c18.331-.003 36.662-.006 54.996 0 .003 5.833.003 11.663-.003 17.496-18.33.003-36.662.003-54.993 0-.006-5.833-.006-11.666 0-17.496Zm5 5c-.002 2.497-.005 4.996 0 7.495 14.998.003 29.995.003 44.995-.003.003-2.496.003-4.995 0-7.491-15-.006-29.997-.003-44.994 0ZM13.59 27.7c1.978-.407 4.023-.111 6.033-.205 2.27-.167 4.541 1.354 5.162 3.56.434 2.018.12 4.11.217 6.158.1 1.928-.976 3.858-2.71 4.725-2.001.988-4.315.402-6.46.566-1.942.187-4.01-.612-5.048-2.32-1.08-1.574-.73-3.548-.782-5.335.047-1.494-.217-3.08.469-4.471a5.053 5.053 0 0 1 3.12-2.678ZM15 32.505c-.003 1.664 0 3.328 0 4.992 1.664.006 3.331.003 4.998 0 .003-1.664.003-3.328 0-4.995-1.667-.003-3.331-.006-4.998.003Zm16.151-4.822c1.996-.375 4.046-.1 6.065-.185 1.986-.108 3.972 1.046 4.802 2.862.609 1.207.471 2.596.483 3.906-.026 1.286.056 2.575-.05 3.86-.231 2.21-2.127 4.102-4.336 4.328-1.277.103-2.56.02-3.84.047-1.249-.018-2.564.126-3.736-.404-1.808-.75-3.067-2.643-3.035-4.606 0-1.749-.027-3.498.012-5.244.055-2.098 1.617-4.022 3.635-4.564Zm1.35 4.819a2079.17 2079.17 0 0 0 0 4.995c1.665.006 3.332.003 4.999.003 0-1.667 0-3.334-.003-4.998-1.664-.003-3.331-.003-4.995 0Zm16.457-4.892c1.925-.232 3.879-.056 5.815-.112 1.98-.094 3.944 1.084 4.761 2.895.71 1.488.402 3.17.466 4.757-.047 1.477.208 3.044-.457 4.427-.768 1.723-2.575 2.912-4.462 2.915-1.764.012-3.524.024-5.285-.006-2.487-.035-4.7-2.206-4.778-4.69a171.45 171.45 0 0 1-.003-5.555c.061-2.206 1.787-4.204 3.943-4.632Zm1.046 4.892A945.11 945.11 0 0 0 50 37.497c1.667.003 3.334.006 5.001-.003-.003-1.664 0-3.325-.003-4.99a704.934 704.934 0 0 0-4.995-.002Zm-36.715 12.8c2.05-.59 4.225-.182 6.328-.305 2.007-.135 4.04 1.002 4.887 2.839.68 1.336.463 2.871.495 4.312-.032 1.269.09 2.55-.097 3.812-.39 2.203-2.434 3.973-4.675 4.025-1.86.024-3.724.033-5.584-.005-2.26-.109-4.263-1.96-4.58-4.196-.14-1.89-.032-3.794-.061-5.69-.07-2.085 1.318-4.104 3.287-4.792Zm1.702 4.717c.02 1.658.003 3.319.009 4.98 1.655.012 3.308-.023 4.96.02.088-1.67.017-3.345.038-5.018-1.67.006-3.34-.02-5.007.018Zm15.885-4.749c1.19-.405 2.464-.238 3.697-.27 1.266.032 2.537-.082 3.797.082 2.253.352 4.078 2.429 4.116 4.714.03 1.758.018 3.516.006 5.273.003 1.884-1.183 3.695-2.897 4.465-1.474.71-3.147.401-4.72.466-1.362-.05-2.783.179-4.093-.308-1.805-.638-3.155-2.402-3.258-4.32-.061-1.267-.006-2.538-.026-3.807.012-1.098-.094-2.244.31-3.292a5.037 5.037 0 0 1 3.068-3.004Zm1.626 4.734c0 1.664-.015 3.33.009 4.995 1.66 0 3.322 0 4.986.003.006-1.667.003-3.334 0-5.001a934.535 934.535 0 0 0-4.995.003Zm15.928-4.752c1.105-.366 2.286-.232 3.428-.252 1.266.026 2.535-.062 3.797.05 2.25.249 4.152 2.22 4.316 4.476.07 1.26.009 2.52.029 3.78-.018 1.157.114 2.364-.328 3.466-.686 1.875-2.59 3.222-4.591 3.22-1.758.01-3.519.023-5.276-.004-2.47-.032-4.673-2.165-4.785-4.632-.043-1.842-.023-3.691-.008-5.534.029-2.045 1.476-3.952 3.419-4.57Zm1.574 4.749c-.012 1.658.009 3.316-.015 4.977 1.67.05 3.34.012 5.01.021.012-1.655-.023-3.308.023-4.963-1.672-.082-3.345-.017-5.018-.035ZM80.001 52.5c1.664 0 3.328-.003 4.995 0 .009 1.667.006 3.331 0 4.998-1.664.003-3.33.003-4.995 0-.003-1.667-.006-3.334 0-4.998Zm9.999 0c10.002 0 20.001-.006 30 .003-.012 1.667.026 3.337-.02 5.007-9.994-.024-19.987 0-29.98-.015 0-1.664-.003-3.33 0-4.995ZM14.443 62.534c1.829-.076 3.662-.02 5.49-.032 1.931-.047 3.815 1.143 4.603 2.903.653 1.348.425 2.88.463 4.325-.035 1.274.106 2.566-.117 3.829-.43 2.162-2.447 3.87-4.652 3.928-1.773.027-3.545.015-5.318.006-1.901-.003-3.718-1.216-4.477-2.956-.659-1.418-.377-3.017-.433-4.523.056-1.439-.202-2.942.334-4.319.644-1.705 2.288-2.985 4.107-3.16Zm.56 4.966c-.006 1.664 0 3.331-.003 4.995 1.664.009 3.331.006 4.998.003.009-1.661-.009-3.32.012-4.978-1.67-.046-3.337-.008-5.007-.02Zm17.027-4.972c1.913-.055 3.832-.032 5.748-.014 2.306.073 4.374 1.968 4.661 4.256.126 1.278.036 2.564.062 3.844-.026 1.254.138 2.572-.37 3.76-.72 1.842-2.621 3.137-4.602 3.122-1.76.003-3.524.02-5.285-.009-1.898-.067-3.67-1.339-4.371-3.1-.513-1.189-.349-2.513-.372-3.77.026-1.28-.067-2.563.056-3.838.275-2.223 2.238-4.092 4.473-4.25Zm.49 4.97c-.042 1.663-.012 3.333-.018 5 1.664.003 3.331.003 4.998 0-.003-1.667.009-3.334-.006-5-1.658.002-3.316.005-4.974 0Zm16.555-4.911c1.31-.173 2.634-.053 3.947-.088 1.245.032 2.543-.144 3.735.32 1.866.679 3.217 2.557 3.231 4.55.02 1.766.024 3.532 0 5.296-.011 2.575-2.32 4.846-4.892 4.825-1.77.015-3.536.024-5.303-.003-2.435-.038-4.614-2.118-4.764-4.547-.061-1.845-.023-3.694-.02-5.54-.009-2.305 1.801-4.43 4.066-4.813Zm.914 4.933c.024 1.659.003 3.32.012 4.978 1.65.018 3.299-.035 4.948.035.114-1.676.024-3.354.05-5.033-1.67.009-3.34-.023-5.01.02Zm30.015-5.021c1.65-.009 3.302.018 4.951-.018.097 1.67.023 3.343.044 5.016-1.667.006-3.334.006-5 0 .002-1.667-.007-3.334.005-4.998Zm9.999 0c9.999 0 19.998-.003 29.997.003 0 1.667.012 3.334-.009 5-9.996-.01-19.995.007-29.994-.008.003-1.664-.003-3.33.006-4.995Zm-9.996 9.999c1.67.03 3.343-.056 5.012.044-.073 1.658.056 3.325-.073 4.983-1.646-.05-3.296-.014-4.942-.023-.009-1.667-.009-3.337.003-5.004Zm9.996 0c9.999.003 19.998-.003 29.994.003.006 1.667.006 3.331.003 4.998-9.999.006-19.998 0-29.997.003a571.693 571.693 0 0 1 0-5.004Zm50.751 5.332c2.619-.598 5.54.287 7.321 2.314 1.89 2.113 2.382 5.335 1.225 7.92-.586 1.453-1.767 2.522-2.851 3.603-13.763 13.767-27.533 27.53-41.297 41.3-.703.762-1.714 1.081-2.619 1.526-3.888 1.767-7.755 3.586-11.651 5.332-1.899.856-4.084-1.35-3.194-3.24 1.876-4.166 3.824-8.3 5.716-12.457.261-.58.522-1.178.985-1.623 14.162-14.165 28.336-28.316 42.492-42.486a7.757 7.757 0 0 1 3.873-2.189Zm-1.852 7.23a700.505 700.505 0 0 0 3.536 3.53c.85-.978 2.139-1.722 2.444-3.06.343-1.492-.97-3.03-2.493-2.94-1.576.018-2.417 1.554-3.487 2.47Zm-5.282 5.286c1.178 1.172 2.347 2.355 3.533 3.521.592-.58 1.196-1.148 1.741-1.772-1.199-1.143-2.344-2.335-3.525-3.495-.589.577-1.169 1.16-1.749 1.746Zm-35.4 35.434c-1.148 2.139-2.056 4.412-3.108 6.604 2.03-.9 4.04-1.849 6.062-2.775.776-.348 1.277-1.075 1.887-1.637 10.186-10.166 20.335-20.37 30.544-30.516-1.136-1.222-2.346-2.376-3.527-3.554-10.623 10.623-21.264 21.229-31.857 31.878ZM79.998 82.506c1.667-.009 3.334-.009 5.001 0-.023 1.67.059 3.346-.047 5.013-1.65-.038-3.299-.012-4.945-.015-.015-1.667-.006-3.334-.009-4.998Zm10.002 0c9.996-.015 19.995 0 29.994-.009.015 1.667.006 3.334.006 5.001-9.999.006-19.998.003-29.997.003-.009-1.667-.003-3.331-.003-4.995Zm-33.967 7.541c5.162-.31 10.418 1.025 14.786 3.806 4.53 2.85 8.104 7.192 10.014 12.193a25.076 25.076 0 0 1 .61 16.145 25.042 25.042 0 0 1-8.391 12.372 24.839 24.839 0 0 1-14.162 5.394 24.977 24.977 0 0 1-15.17-4.104c-4.673-3.074-8.262-7.764-9.985-13.087-1.974-6.003-1.564-12.753 1.163-18.457 3.765-8.124 12.176-13.84 21.135-14.262Zm.038 5.004c-6.278.395-12.216 3.996-15.524 9.337-2.335 3.697-3.384 8.179-2.953 12.533.43 4.731 2.648 9.269 6.096 12.539 3.358 3.231 7.884 5.221 12.537 5.496 4.347.281 8.777-.905 12.39-3.346 3.922-2.61 6.864-6.659 8.13-11.2a20.028 20.028 0 0 0 0-10.846c-1.264-4.538-4.208-8.578-8.128-11.188-3.653-2.473-8.15-3.645-12.548-3.325Z" fill="#fff" fill-opacity=".2"/><path d="M54.984 100.028c1.67-.064 3.343-.011 5.016-.029-.003.914 0 1.828.006 2.742 2.44.489 4.872 1.65 6.34 3.727.747 1.022 1.113 2.27 1.172 3.527-1.644.012-3.29-.006-4.937.012-.521-1.497-2.168-2.11-3.598-2.376-1.974-.299-4.192-.082-5.794 1.213-.566.419-.95 1.268-.408 1.869 1.175 1.424 3.167 1.761 4.92 1.79 2.648.044 5.372.817 7.402 2.578 1.378 1.187 2.35 2.906 2.388 4.752.08 1.948-.917 3.812-2.376 5.057-1.435 1.254-3.246 1.992-5.1 2.358-.018.917-.018 1.834-.015 2.751-1.676-.029-3.357.067-5.03-.05.04-.899.035-1.796.026-2.692-2.35-.478-4.687-1.565-6.179-3.504-.843-1.064-1.289-2.399-1.333-3.753 1.65.003 3.3-.009 4.949.009.442 1.312 1.822 1.936 3.07 2.253 2.024.448 4.312.284 6.062-.908.618-.422 1.28-1.292.69-2.01-1.115-1.442-3.09-1.799-4.813-1.843-3.058-.029-6.278-1.04-8.346-3.39-1.524-1.696-2.054-4.257-1.146-6.375 1.187-2.836 4.16-4.432 7.049-4.998.003-.902.006-1.807-.015-2.71Z" fill="#fff" fill-opacity=".2"/></svg>