<svg width="40" height="40" viewBox="0 0 40 40" fill="none" xmlns="http://www.w3.org/2000/svg">
<path d="M19.4844 0H20.5094C23.7656 0.0929688 27.007 0.963281 29.8367 2.58594C33.6172 4.71484 36.6688 8.11094 38.3766 12.1C39.3883 14.4273 39.9195 16.9523 40 19.4867V20.3742C39.9383 23.3281 39.232 26.2703 37.907 28.9133C36.5687 31.5859 34.6312 33.9586 32.268 35.7906C28.857 38.4688 24.55 39.9656 20.2141 40H19.4875C16.0766 39.9039 12.6922 38.9391 9.76406 37.1828C6.17344 35.0414 3.27969 31.7539 1.62734 27.9125C0.622656 25.6031 0.090625 23.1008 0 20.5859V19.7055C0.046875 16.4328 0.904688 13.1734 2.49844 10.3125C4.1 7.43594 6.41016 4.95469 9.18594 3.18047C12.2352 1.18984 15.8484 0.103125 19.4844 0ZM19.3414 9.51641C17.6977 9.71094 16.1805 10.7297 15.3758 12.1758C14.7766 13.2352 14.5555 14.5039 14.7719 15.7023C14.9852 16.9469 15.6648 18.1023 16.6445 18.8977C17.5023 19.5992 18.5844 20.0219 19.6922 20.0828C21.0219 20.1648 22.3766 19.7195 23.3977 18.8625C24.957 17.5914 25.6656 15.3906 25.1391 13.4484C24.8039 12.1352 23.9406 10.968 22.7844 10.2617C21.7656 9.63125 20.5297 9.36328 19.3414 9.51641ZM12.5891 20.4062C12.1398 20.7766 11.8875 21.3734 11.9438 21.9539C11.9906 22.5242 12.3258 23.0633 12.8227 23.35C14.0141 24.032 15.2937 24.5578 16.6195 24.9148C15.9578 25.6266 15.2484 26.293 14.5687 26.9875C14.2758 27.2984 13.9188 27.5672 13.732 27.9617C13.4461 28.5367 13.5055 29.2648 13.8844 29.7844C14.1914 30.2188 14.7 30.5039 15.232 30.5328C15.7484 30.5695 16.2703 30.3617 16.6313 29.9922C17.7555 28.8664 18.875 27.7367 20.0008 26.6125C21.0359 27.6438 22.068 28.6789 23.1016 29.7117C23.3117 29.9188 23.5109 30.1469 23.7734 30.2906C24.3031 30.5969 24.9914 30.6 25.5242 30.2984C26.0141 30.0328 26.3594 29.5242 26.4305 28.9719C26.5109 28.4203 26.3078 27.8406 25.9094 27.4516C25.0633 26.6031 24.2133 25.7578 23.368 24.9078C24.675 24.5563 25.9375 24.0398 27.1156 23.375C27.5867 23.1188 27.9352 22.6453 28.0273 22.1156C28.1375 21.543 27.9414 20.9266 27.5289 20.5164C27.1187 20.1 26.4977 19.9062 25.9242 20.0195C25.5766 20.0773 25.2766 20.275 24.9688 20.4328C23.4852 21.2102 21.8344 21.7094 20.1523 21.7359C18.3648 21.7687 16.6 21.2547 15.0258 20.4281C14.7188 20.2719 14.4195 20.0781 14.0734 20.0195C13.5539 19.9203 12.9945 20.0664 12.5891 20.4062Z" fill="#FF9800"/>
<path d="M19.3234 12.2249C20.5515 11.8726 21.9585 12.5632 22.4343 13.7476C22.9718 14.9374 22.4538 16.4679 21.3038 17.0866C20.2195 17.7288 18.7054 17.439 17.9359 16.4406C17.1296 15.4749 17.1702 13.9382 18.028 13.0187C18.3702 12.6351 18.8265 12.3554 19.3234 12.2249Z" fill="#FF9800"/>
<path d="M19.3415 9.51673C20.5298 9.3636 21.7657 9.63157 22.7845 10.262C23.9407 10.9683 24.804 12.1355 25.1392 13.4488C25.6657 15.3909 24.9571 17.5917 23.3978 18.8628C22.3767 19.7199 21.022 20.1652 19.6923 20.0831C18.5845 20.0222 17.5024 19.5995 16.6446 18.898C15.6649 18.1027 14.9853 16.9472 14.772 15.7027C14.5556 14.5042 14.7767 13.2355 15.3759 12.1761C16.1806 10.73 17.6978 9.71126 19.3415 9.51673ZM19.3235 12.2253C18.8267 12.3558 18.3704 12.6355 18.0282 13.0191C17.1704 13.9386 17.1298 15.4753 17.936 16.4409C18.7056 17.4394 20.2196 17.7292 21.304 17.087C22.454 16.4683 22.972 14.9378 22.4345 13.748C21.9587 12.5636 20.5517 11.873 19.3235 12.2253Z" fill="white"/>
<path d="M12.5891 20.4069C12.9946 20.0671 13.554 19.921 14.0735 20.0202C14.4196 20.0788 14.7188 20.2725 15.0258 20.4288C16.6001 21.2553 18.3649 21.7694 20.1524 21.7366C21.8344 21.71 23.4852 21.2108 24.9688 20.4335C25.2766 20.2756 25.5766 20.078 25.9243 20.0202C26.4977 19.9069 27.1188 20.1006 27.529 20.5171C27.9415 20.9272 28.1376 21.5436 28.0274 22.1163C27.9352 22.646 27.5868 23.1194 27.1157 23.3756C25.9376 24.0405 24.6751 24.5569 23.368 24.9085C24.2133 25.7585 25.0633 26.6038 25.9094 27.4522C26.3079 27.8413 26.511 28.421 26.4305 28.9725C26.3594 29.5249 26.0141 30.0335 25.5243 30.2991C24.9915 30.6006 24.3032 30.5975 23.7735 30.2913C23.511 30.1475 23.3118 29.9194 23.1016 29.7124C22.068 28.6796 21.036 27.6444 20.0008 26.6131C18.8751 27.7374 17.7555 28.8671 16.6313 29.9928C16.2704 30.3624 15.7485 30.5702 15.2321 30.5335C14.7001 30.5046 14.1915 30.2194 13.8844 29.785C13.5055 29.2655 13.4462 28.5374 13.7321 27.9624C13.9188 27.5678 14.2758 27.2991 14.5688 26.9881C15.2485 26.2936 15.9579 25.6272 16.6196 24.9155C15.2938 24.5585 14.0141 24.0327 12.8227 23.3506C12.3258 23.0639 11.9907 22.5249 11.9438 21.9546C11.8876 21.3741 12.1399 20.7772 12.5891 20.4069Z" fill="white"/>
</svg>
