<svg width="40" height="40" viewBox="0 0 40 40" fill="none" xmlns="http://www.w3.org/2000/svg">
<path d="M19.6562 0H20.3289C23.3766 0.0601562 26.4148 0.8 29.1242 2.20391C33.1391 4.25312 36.4172 7.70547 38.2516 11.8242C39.3922 14.343 39.9742 17.1047 40 19.8672V20.3312C39.9367 23.6687 39.0469 26.993 37.3813 29.8898C35.775 32.7172 33.4641 35.1414 30.718 36.8828C27.6359 38.8578 24 39.932 20.343 40H19.6711C15.7094 39.9328 11.7742 38.6719 8.53516 36.3844C6.37813 34.875 4.52344 32.9359 3.11406 30.7125C1.14062 27.632 0.0679687 23.9977 0 20.3422V19.6703C0.0429688 18.0141 0.257031 16.3594 0.697656 14.7609C1.41328 12.1055 2.69375 9.60547 4.42031 7.46484C6.19766 5.25391 8.45078 3.42656 10.9844 2.14844C13.6617 0.782031 16.6539 0.0625 19.6562 0ZM16.3164 14.0078C15.8117 14.1078 15.2602 14.3797 15.0852 14.8984C15.4727 14.9914 15.8906 15.082 16.1852 15.3719C16.5586 15.7078 16.6109 16.243 16.6797 16.7109C16.7523 17.907 16.8188 19.1258 16.5914 20.3094C16.5063 20.5938 16.45 20.932 16.1938 21.1164C15.8836 21.3039 15.5281 21.0961 15.2945 20.882C14.6883 20.3195 14.2633 19.6008 13.832 18.9039C13.1172 17.7992 12.5273 16.6172 12.0242 15.4031C11.9195 15.1594 11.8109 14.8938 11.5789 14.743C11.3648 14.6031 11.1133 14.5102 10.8555 14.5141C9.68281 14.5242 8.50938 14.5289 7.33672 14.5391C7.04375 14.5508 6.72031 14.5844 6.49609 14.7945C6.32031 15.0328 6.42109 15.3523 6.52578 15.5992C7.63672 18.0906 8.91563 20.5109 10.4008 22.8016C11.3484 24.1695 12.3172 25.5562 13.6156 26.6203C15.2961 28.0266 17.4844 28.8594 19.6859 28.7727C20.232 28.7352 20.8258 28.8828 21.3281 28.6055C21.5672 28.4867 21.6992 28.2266 21.7242 27.9695C21.7852 27.2844 21.7844 26.5633 22.1023 25.9359C22.2406 25.6781 22.4375 25.4117 22.7383 25.3438C23.0477 25.2781 23.3305 25.4734 23.5687 25.6437C24.482 26.3969 25.1133 27.4359 26.0508 28.1641C26.5266 28.5492 27.1219 28.8055 27.7375 28.8266C28.9344 28.8047 30.132 28.7914 31.3297 28.7742C31.7617 28.7563 32.2391 28.6477 32.5281 28.3C32.7289 28.0391 32.6586 27.675 32.5211 27.4023C32.2914 26.9492 31.9953 26.5313 31.668 26.1438C30.8742 25.1727 29.9352 24.3352 29.0406 23.4594C28.7953 23.1875 28.5031 22.932 28.3898 22.5719C28.275 22.2078 28.4508 21.8383 28.6438 21.5359C29.2938 20.5344 30.0844 19.6344 30.7711 18.6586C31.1297 18.132 31.5305 17.6336 31.8406 17.075C32.1531 16.5461 32.4984 16.0156 32.6219 15.4039C32.6586 15.1906 32.675 14.9297 32.5008 14.7687C32.2664 14.5641 31.9352 14.5328 31.6375 14.5273C30.125 14.5562 28.6117 14.5469 27.0992 14.5664C26.7117 14.568 26.4727 14.9305 26.3539 15.257C25.6859 16.9586 24.8148 18.5859 23.7227 20.0539C23.4383 20.4156 23.1445 20.7859 22.7555 21.0406C22.5953 21.1414 22.3633 21.2266 22.2 21.0883C21.8188 20.8031 21.7398 20.2898 21.7195 19.8445C21.6844 18.4367 21.7812 17.0297 21.7891 15.6219C21.7781 15.1664 21.7531 14.6445 21.4109 14.3031C21.0312 14.0188 20.5359 13.9703 20.0805 13.9086C18.8273 13.8398 17.5578 13.7922 16.3164 14.0078Z" fill="#4D76A1"/>
<path d="M16.3166 14.0077C17.558 13.7921 18.8275 13.8398 20.0807 13.9085C20.5361 13.9702 21.0314 14.0187 21.4111 14.303C21.7533 14.6445 21.7783 15.1663 21.7893 15.6218C21.7814 17.0296 21.6846 18.4366 21.7197 19.8445C21.74 20.2898 21.8189 20.803 22.2002 21.0882C22.3635 21.2265 22.5955 21.1413 22.7557 21.0405C23.1447 20.7859 23.4385 20.4155 23.7229 20.0538C24.815 18.5859 25.6861 16.9585 26.3541 15.257C26.4729 14.9304 26.7119 14.5679 27.0994 14.5663C28.6119 14.5468 30.1252 14.5562 31.6377 14.5273C31.9354 14.5327 32.2666 14.564 32.501 14.7687C32.6752 14.9296 32.6588 15.1905 32.6221 15.4038C32.4986 16.0155 32.1533 16.546 31.8408 17.0749C31.5307 17.6335 31.1299 18.132 30.7713 18.6585C30.0846 19.6343 29.2939 20.5343 28.6439 21.5359C28.451 21.8382 28.2752 22.2077 28.39 22.5718C28.5033 22.932 28.7955 23.1874 29.0408 23.4593C29.9354 24.3351 30.8744 25.1726 31.6682 26.1437C31.9955 26.5312 32.2916 26.9491 32.5213 27.4023C32.6588 27.6749 32.7291 28.039 32.5283 28.2999C32.2393 28.6476 31.7619 28.7562 31.3299 28.7741C30.1322 28.7913 28.9346 28.8046 27.7377 28.8265C27.1221 28.8054 26.5268 28.5491 26.051 28.164C25.1135 27.4359 24.4822 26.3968 23.5689 25.6437C23.3307 25.4734 23.0479 25.278 22.7385 25.3437C22.4377 25.4116 22.2408 25.6781 22.1025 25.9359C21.7846 26.5632 21.7854 27.2843 21.7244 27.9695C21.6994 28.2265 21.5674 28.4866 21.3283 28.6054C20.826 28.8827 20.2322 28.7351 19.6861 28.7726C17.4846 28.8593 15.2963 28.0265 13.6158 26.6202C12.3174 25.5562 11.3486 24.1695 10.401 22.8015C8.91582 20.5109 7.63691 18.0905 6.52597 15.5991C6.42129 15.3523 6.32051 15.0327 6.49629 14.7945C6.72051 14.5843 7.04394 14.5507 7.33691 14.539C8.50957 14.5288 9.68301 14.5241 10.8557 14.514C11.1135 14.5101 11.365 14.603 11.5791 14.7429C11.8111 14.8937 11.9197 15.1593 12.0244 15.403C12.5275 16.6171 13.1174 17.7991 13.8322 18.9038C14.2635 19.6007 14.6885 20.3195 15.2947 20.882C15.5283 21.096 15.8838 21.3038 16.1939 21.1163C16.4502 20.932 16.5064 20.5937 16.5916 20.3093C16.8189 19.1257 16.7525 17.907 16.6799 16.7109C16.6111 16.2429 16.5588 15.7077 16.1854 15.3718C15.8908 15.082 15.4729 14.9913 15.0854 14.8984C15.2604 14.3796 15.8119 14.1077 16.3166 14.0077Z" fill="white"/>
</svg>
