<svg width="40" height="40" fill="none" xmlns="http://www.w3.org/2000/svg"><path d="M19.484 0h1.025c3.257.093 6.498.963 9.328 2.586a20.085 20.085 0 0 1 8.54 9.514c1.011 2.327 1.542 4.852 1.623 7.387v.887a20.049 20.049 0 0 1-2.093 8.54 20.139 20.139 0 0 1-5.639 6.877C28.857 38.469 24.55 39.966 20.214 40h-.726c-3.411-.096-6.796-1.06-9.724-2.817a20.154 20.154 0 0 1-8.137-9.27C.623 25.603.091 23.1 0 20.586v-.88a19.972 19.972 0 0 1 2.498-9.393A20.086 20.086 0 0 1 9.186 3.18C12.236 1.19 15.848.103 19.484 0Zm-.143 9.516a5.326 5.326 0 0 0-3.965 2.66 5.312 5.312 0 0 0 1.269 6.722 5.312 5.312 0 0 0 6.753-.035c1.559-1.272 2.268-3.472 1.741-5.415a5.317 5.317 0 0 0-2.355-3.186 5.31 5.31 0 0 0-3.443-.746Zm-6.752 10.89a1.805 1.805 0 0 0 .234 2.944 16.05 16.05 0 0 0 3.796 1.565c-.661.712-1.37 1.378-2.05 2.073-.293.31-.65.58-.837.974a1.797 1.797 0 0 0 .152 1.822 1.795 1.795 0 0 0 2.747.208c1.125-1.126 2.244-2.255 3.37-3.38 1.035 1.032 2.067 2.067 3.1 3.1.21.207.41.435.672.579a1.79 1.79 0 0 0 2.136-2.839c-.846-.849-1.696-1.694-2.541-2.544a16.194 16.194 0 0 0 3.748-1.533c.47-.256.82-.73.911-1.26a1.8 1.8 0 0 0-2.103-2.096c-.347.058-.647.256-.955.414-1.484.777-3.135 1.276-4.817 1.303-1.787.033-3.552-.481-5.126-1.308-.307-.156-.607-.35-.953-.409a1.813 1.813 0 0 0-1.484.387Z" fill="#FF9800"/><path d="M19.323 12.225c1.229-.352 2.636.338 3.111 1.523.538 1.19.02 2.72-1.13 3.339-1.084.642-2.599.352-3.368-.646-.806-.966-.766-2.503.092-3.422a2.65 2.65 0 0 1 1.295-.794Z" fill="#FF9800"/><path d="M19.341 9.517a5.31 5.31 0 0 1 3.444.745 5.317 5.317 0 0 1 2.354 3.187c.527 1.942-.182 4.143-1.741 5.414a5.312 5.312 0 0 1-6.753.035 5.313 5.313 0 0 1-1.27-6.722 5.326 5.326 0 0 1 3.966-2.66Zm-.018 2.708a2.65 2.65 0 0 0-1.295.794c-.858.92-.898 2.456-.092 3.422.77.998 2.284 1.288 3.368.646 1.15-.619 1.668-2.15 1.13-3.339-.475-1.184-1.882-1.875-3.11-1.523Z" fill="#fff"/><path d="M12.59 20.407c.405-.34.964-.486 1.483-.387.347.059.646.253.953.409 1.574.826 3.339 1.34 5.126 1.308 1.682-.027 3.333-.526 4.817-1.303.308-.158.608-.356.955-.414a1.8 1.8 0 0 1 2.103 2.096 1.812 1.812 0 0 1-.911 1.26 16.193 16.193 0 0 1-3.748 1.532c.845.85 1.695 1.696 2.541 2.544a1.79 1.79 0 0 1-2.136 2.84c-.262-.145-.461-.373-.671-.58-1.034-1.032-2.066-2.068-3.101-3.099-1.126 1.124-2.245 2.254-3.37 3.38a1.795 1.795 0 0 1-2.747-.208 1.796 1.796 0 0 1-.152-1.823c.187-.394.544-.663.837-.974.68-.694 1.389-1.36 2.05-2.072a16.047 16.047 0 0 1-3.796-1.565 1.805 1.805 0 0 1-.234-2.944Z" fill="#fff"/></svg>