<svg width="40" height="40" fill="none" xmlns="http://www.w3.org/2000/svg"><path d="M19.656 0h.673c3.048.06 6.086.8 8.795 2.204a20.063 20.063 0 0 1 9.128 9.62c1.14 2.519 1.722 5.28 1.748 8.043v.464c-.063 3.338-.953 6.662-2.619 9.559a20.05 20.05 0 0 1-6.663 6.993C27.636 38.858 24 39.932 20.343 40h-.672c-3.962-.067-7.897-1.328-11.136-3.616a20.042 20.042 0 0 1-5.42-5.672C1.14 27.633.067 23.998 0 20.343v-.672c.043-1.656.257-3.31.698-4.91A19.926 19.926 0 0 1 4.42 7.466a20.03 20.03 0 0 1 6.564-5.317C13.662.782 16.654.062 19.656 0Zm-3.34 14.008c-.504.1-1.056.372-1.23.89.387.093.805.184 1.1.474.373.336.425.871.494 1.339.072 1.196.139 2.415-.089 3.598-.085.285-.141.623-.397.807-.31.188-.666-.02-.9-.234-.606-.563-1.03-1.281-1.462-1.978-.715-1.105-1.305-2.287-1.808-3.5-.104-.245-.213-.51-.445-.661a1.305 1.305 0 0 0-.724-.229c-1.172.01-2.346.015-3.518.025-.293.012-.617.045-.84.255-.177.239-.076.558.029.805 1.11 2.492 2.39 4.912 3.875 7.203.947 1.367 1.916 2.754 3.215 3.818 1.68 1.407 3.868 2.24 6.07 2.153.546-.038 1.14.11 1.642-.168.24-.118.371-.378.396-.636.061-.685.06-1.406.378-2.033.139-.258.335-.524.636-.592.31-.066.593.13.83.3.914.753 1.545 1.792 2.483 2.52.476.385 1.07.641 1.687.663 1.196-.022 2.394-.036 3.592-.053.432-.018.91-.126 1.198-.474.2-.26.13-.625-.007-.898a6.574 6.574 0 0 0-.853-1.258c-.794-.971-1.733-1.809-2.627-2.685-.246-.271-.538-.527-.651-.887-.115-.364.06-.734.254-1.036.65-1.002 1.44-1.902 2.127-2.877.359-.527.76-1.025 1.07-1.584.312-.529.657-1.06.78-1.671.038-.213.054-.474-.12-.635-.235-.205-.566-.236-.863-.242-1.513.03-3.026.02-4.539.04-.387.001-.626.364-.745.69-.668 1.702-1.54 3.329-2.631 4.797-.285.362-.578.732-.967.987-.16.1-.393.186-.556.047-.381-.285-.46-.798-.48-1.244-.036-1.407.061-2.814.07-4.222-.012-.456-.037-.977-.38-1.319-.379-.284-.874-.333-1.33-.394-1.253-.07-2.522-.117-3.764.099Z" fill="#4D76A1"/><path d="M16.317 14.008c1.241-.216 2.51-.168 3.764-.1.455.062.95.11 1.33.395.342.341.367.863.378 1.319-.008 1.408-.104 2.815-.07 4.223.021.445.1.958.481 1.243.163.139.396.053.556-.047.389-.255.683-.625.967-.987 1.092-1.468 1.963-3.095 2.631-4.797.119-.327.358-.69.745-.69 1.513-.02 3.026-.01 4.539-.04.297.006.629.037.863.242.174.16.158.421.121.635-.123.611-.469 1.142-.781 1.67-.31.56-.711 1.058-1.07 1.584-.686.976-1.477 1.876-2.127 2.878-.193.302-.369.672-.254 1.036.113.36.405.615.65.887.895.876 1.834 1.714 2.628 2.685.328.387.624.805.853 1.258.138.273.208.637.007.898-.289.348-.766.456-1.198.474-1.198.017-2.395.03-3.592.052-.616-.02-1.211-.277-1.687-.662-.938-.728-1.569-1.767-2.482-2.52-.238-.17-.521-.366-.83-.3-.301.068-.498.334-.637.592-.317.627-.317 1.348-.378 2.034-.025.257-.157.517-.396.635-.502.278-1.096.13-1.642.168-2.201.086-4.39-.747-6.07-2.153-1.299-1.064-2.267-2.45-3.215-3.819-1.485-2.29-2.764-4.71-3.875-7.202-.105-.247-.205-.566-.03-.805.225-.21.548-.243.84-.255 1.174-.01 2.347-.015 3.52-.025.258-.004.509.089.723.229.232.15.34.416.445.66.504 1.214 1.093 2.396 1.808 3.5.431.698.856 1.417 1.463 1.979.233.214.589.422.899.234.256-.184.312-.522.398-.807.227-1.183.16-2.402.088-3.598-.069-.468-.121-1.003-.495-1.34-.294-.289-.712-.38-1.1-.473.175-.518.727-.79 1.232-.89Z" fill="#fff"/></svg>