<svg width="150" height="150" viewBox="0 0 150 150" fill="none" xmlns="http://www.w3.org/2000/svg">
<path d="M23.6103 0H126.354C127.664 0.105469 128.704 1.28613 128.604 2.60449C128.637 8.82715 128.587 15.0498 128.628 21.2725C134.438 28.1895 140.2 35.1445 146.007 42.0645C146.44 42.5479 146.763 43.1309 146.856 43.7783C147.905 49.5762 148.907 55.3799 150 61.1689V61.8955C149.833 66.4043 147.797 70.834 144.325 73.7432C142.702 75.1699 140.76 76.1602 138.744 76.9043C138.75 100.395 138.756 123.885 138.741 147.375C138.832 148.658 137.877 149.815 136.608 150H35.2998C33.9873 149.912 32.8389 148.699 33.0498 147.354C33.1611 146.039 34.4766 145.151 35.7422 145.271C52.8779 145.26 70.0166 145.269 87.1553 145.266C87.1699 127.216 87.1377 109.166 87.1699 91.1162C87.0967 89.7598 88.2773 88.5557 89.6367 88.6201C100.474 88.5762 111.311 88.626 122.147 88.5967C123.073 88.5967 124.157 88.5879 124.825 89.3467C125.464 89.9473 125.511 90.873 125.517 91.6934C125.502 109.55 125.517 127.406 125.508 145.263C128.344 145.271 131.177 145.266 134.013 145.266C134.016 122.728 134.013 100.192 134.013 77.6543C132.021 77.6543 129.996 77.6162 128.068 77.0537C124.143 75.999 120.732 73.3564 118.579 69.9258C116.159 73.8164 112.084 76.6494 107.549 77.3994C103.479 77.9707 99.1113 77.7012 95.4844 75.6064C93.044 74.2734 91.0254 72.2666 89.5312 69.9346C86.9473 74.0449 82.5205 76.998 77.6631 77.5137C74.666 77.7861 71.5547 77.7246 68.707 76.6524C65.3027 75.4248 62.4082 72.9785 60.4746 69.9346C57.9521 73.9688 53.6514 76.8721 48.9141 77.4785C45.3721 77.8652 41.6367 77.6982 38.3818 76.1191C35.5107 74.8008 33.1084 72.5859 31.4238 69.9287C29.2734 73.3564 25.8633 75.9961 21.9404 77.0508C20.0098 77.6162 17.9824 77.6543 15.9873 77.6543C15.9873 100.192 15.9844 122.728 15.9873 145.266C19.8457 145.277 23.7041 145.248 27.5596 145.277C28.6992 145.207 29.8477 145.96 30.0732 147.108C30.4395 148.479 29.3291 149.865 27.958 150H13.4678C11.8711 149.868 11.042 148.248 11.2441 146.789C11.2705 123.498 11.2266 100.21 11.2646 76.9219C7.7959 75.6914 4.64648 73.4385 2.6543 70.3096C0.987305 67.8369 0.169922 64.8838 0 61.9248V61.2188C0.993164 55.8604 1.93945 50.4932 2.90039 45.1289C3.09668 44.1328 3.1377 43.0225 3.85547 42.2314C9.58887 35.3672 15.3193 28.4971 21.0586 21.6387C21.3662 21.3516 21.3984 20.9355 21.3926 20.54C21.3896 14.5664 21.375 8.58984 21.3955 2.61328C21.293 1.30371 22.3125 0.128906 23.6103 0ZM26.1211 4.73438C26.1211 9.58008 26.1182 14.4258 26.1211 19.2715C58.708 19.2715 91.292 19.2715 123.879 19.2715C123.882 14.4258 123.879 9.58008 123.879 4.73438C91.292 4.73438 58.708 4.73145 26.1211 4.73438ZM25.251 24.0088C20.3643 29.8594 15.4775 35.71 10.5967 41.5635C17.7832 41.5635 24.9697 41.5664 32.1562 41.5635C35.0303 35.71 37.9189 29.8652 40.79 24.0088C35.6104 24.0029 30.4307 24.0059 25.251 24.0088ZM46.0693 24.0088C43.1924 29.8594 40.3096 35.71 37.4414 41.5635C44.7539 41.5635 52.0693 41.5664 59.3818 41.5635C60.2695 35.71 61.166 29.8594 62.0508 24.0059C56.7246 24.0059 51.3955 24.0029 46.0693 24.0088ZM66.8438 24.0088C65.9531 29.8594 65.0654 35.7129 64.1807 41.5635C71.3936 41.5635 78.6064 41.5664 85.8223 41.5635C84.9316 35.7129 84.0469 29.8594 83.1562 24.0088C77.7188 24.0059 72.2812 24.0029 66.8438 24.0088ZM87.9492 24.0059C88.834 29.8594 89.7305 35.71 90.6182 41.5605C97.9307 41.5693 105.246 41.5635 112.559 41.5635C109.69 35.71 106.808 29.8594 103.931 24.0088C98.6045 24.0029 93.2754 24.0059 87.9492 24.0059ZM109.21 24.0088C112.081 29.8652 114.97 35.71 117.844 41.5635C125.033 41.5664 132.223 41.5635 139.412 41.5635C134.528 35.71 129.639 29.8564 124.749 24.0059C119.569 24.0088 114.39 24.0029 109.21 24.0088ZM7.49121 46.3184C6.62695 51.3076 5.70703 56.2881 4.82227 61.2744C4.54687 66.0234 7.80176 70.6377 12.2637 72.1963C14.71 73.0693 17.3906 73.0547 19.9277 72.6533C23.9502 71.8594 27.3984 68.7188 28.5322 64.7754C29.001 63.4395 28.9482 62.0098 29.1445 60.624C29.7393 55.8486 30.3486 51.0732 30.9434 46.2979C23.124 46.3125 15.3076 46.2715 7.49121 46.3184ZM35.7275 46.3008C35.0918 51.2812 34.4619 56.2646 33.8467 61.248C33.6592 65.5107 36.1992 69.7178 40.0049 71.6191C42.4482 72.9199 45.3135 73.0811 48.0176 72.7939C52.377 72.3545 56.291 69.1113 57.5449 64.916C57.9873 63.6445 58.0371 62.2852 58.1338 60.9551C58.3945 56.0713 58.6641 51.1846 58.9219 46.3008C51.1904 46.2978 43.459 46.2978 35.7275 46.3008ZM63.6621 46.3008C63.4102 51.3721 63.082 56.4404 62.8682 61.5117C62.8184 66.2812 66.0908 70.8428 70.6406 72.29C73.2246 73.1074 76.0488 73.0869 78.6768 72.498C82.3184 71.5576 85.3916 68.6719 86.543 65.0889C87.1465 63.3838 87.208 61.541 87.0615 59.7539C86.8154 55.2715 86.5752 50.7861 86.335 46.3008C78.7793 46.2949 71.2207 46.2949 63.6621 46.3008ZM91.0781 46.3008C91.3711 51.5625 91.623 56.8301 91.9482 62.0918C92.1035 65.9004 94.3447 69.5332 97.6729 71.3848C100.603 73.0957 104.2 73.1953 107.455 72.5654C112.521 71.4375 116.405 66.4717 116.156 61.2715C115.535 56.2793 114.902 51.29 114.275 46.3008C106.541 46.2978 98.8096 46.2978 91.0781 46.3008ZM119.057 46.2979C119.745 52.043 120.568 57.7734 121.157 63.5303C121.673 66.3633 123.287 68.9766 125.622 70.6699C128.124 72.5859 131.394 73.1279 134.47 72.8555C136.893 72.7354 139.269 71.8125 141.12 70.2451C143.692 68.1504 145.254 64.8662 145.21 61.5469C144.352 56.4668 143.37 51.4072 142.518 46.3242C134.698 46.2627 126.876 46.3154 119.057 46.2979ZM91.8955 93.3398C91.8897 95.9678 91.8926 98.5957 91.8926 101.224C101.52 101.227 111.144 101.244 120.771 101.215C120.759 98.5898 120.771 95.9648 120.765 93.3398C111.141 93.3369 101.517 93.3369 91.8955 93.3398ZM91.8955 105.976C91.8897 119.071 91.8897 132.17 91.8955 145.266C101.517 145.266 111.141 145.269 120.765 145.266C120.768 132.17 120.768 119.071 120.765 105.976C111.141 105.973 101.517 105.973 91.8955 105.976Z" fill="white" fill-opacity="0.2"/>
<path d="M33.1786 9.79392C34.1015 9.53903 35.0712 9.65036 36.0175 9.62985C62.3905 9.62985 88.7636 9.63571 115.14 9.62692C116.203 9.64743 117.466 9.47751 118.292 10.3037C119.256 11.1621 119.259 12.8261 118.304 13.6933C117.475 14.5254 116.209 14.3554 115.145 14.3789C88.1864 14.3642 61.2304 14.3847 34.2743 14.3701C33.2225 14.4258 32.1122 13.8603 31.7577 12.8261C31.2714 11.6484 31.9686 10.1748 33.1786 9.79392Z" fill="white" fill-opacity="0.2"/>
<path d="M27.3868 88.6699C28.213 88.5527 29.0508 88.6113 29.8829 88.6025C45.4102 88.6084 60.9376 88.5967 76.4649 88.6084C77.8917 88.4649 79.2628 89.6484 79.1631 91.1191C79.1837 100.975 79.1807 110.836 79.1661 120.691C79.2803 122.168 77.9092 123.384 76.4708 123.246C60.3545 123.252 44.2354 123.249 28.1192 123.246C26.6749 123.387 25.2979 122.174 25.4151 120.688C25.4005 110.836 25.3975 100.98 25.418 91.1279C25.3594 89.9678 26.2061 88.8135 27.3868 88.6699ZM30.1436 93.3399C30.1553 101.736 30.1055 110.133 30.1671 118.526C44.918 118.5 59.669 118.515 74.4229 118.521C74.4639 110.127 74.4317 101.733 74.4376 93.3399C59.6719 93.3369 44.9063 93.3369 30.1436 93.3399Z" fill="white" fill-opacity="0.2"/>
</svg>
