<svg width="151" height="150" viewBox="0 0 151 150" fill="none" xmlns="http://www.w3.org/2000/svg">
<path d="M72.611 0H87.986C88.9791 0.128906 89.9254 0.782227 90.2008 1.77539C90.4264 2.83301 90.3239 3.92285 90.3385 4.99512C96.0836 5.00977 101.829 4.98047 107.574 5.00684C108.922 4.9248 110.266 5.95312 110.301 7.35352C110.419 9.89941 110.284 12.457 110.363 15.0059C116.164 14.9941 121.964 14.9736 127.765 15.0146C129.286 14.9648 130.475 16.3916 130.335 17.8682C130.343 52.5381 130.332 87.2109 130.343 121.881C130.311 123.079 130.543 124.515 129.588 125.438C128.618 126.48 126.76 126.378 125.908 125.241C125.155 124.289 125.369 122.997 125.334 121.872C125.342 87.917 125.337 53.9619 125.337 20.0068C104.668 20.001 84.0016 20.0068 63.3326 20.0039C62.6002 19.9922 61.8063 19.9014 61.2408 19.3828C60.195 18.542 60.0807 16.8164 61.0065 15.8438C61.5719 15.1699 62.4918 14.9883 63.3297 14.9971C77.3336 14.9912 91.3375 15 105.341 14.9941C105.344 13.3271 105.344 11.6631 105.339 9.99902C99.6403 9.99316 93.9391 10.0049 88.2379 9.99609C87.1451 10.0635 85.9733 9.52734 85.569 8.46094C85.1852 7.35352 85.3756 6.14941 85.3375 5.00098C82.0065 4.99512 78.6725 4.99805 75.3414 4.99805C75.2828 6.23145 75.5582 7.56738 74.9869 8.71289C74.5065 9.65625 73.4049 10.0459 72.4 9.99609C66.7135 10.0049 61.027 9.99316 55.3405 9.99902C55.3141 12.5068 55.3815 15.0146 55.3112 17.5195C55.3053 18.6299 54.4967 19.6904 53.3951 19.9014C52.4225 20.0742 51.4293 19.9951 50.4508 20.0039C45.4147 20.0068 40.3785 20.001 35.3424 20.0068C35.3395 62.3672 35.3453 104.725 35.3395 147.082C35.4801 148.509 34.4371 149.871 32.9899 150H2.67932C1.42249 149.868 0.417603 148.819 0.341431 147.56V147.325C0.487915 146.156 1.43127 145.087 2.65295 145.046C5.21057 144.935 7.77405 145.037 10.3375 144.999C10.3405 141.583 10.3375 138.167 10.3375 134.751C6.81897 133.963 3.63733 131.701 1.92053 128.511C0.939087 126.791 0.476196 124.831 0.341431 122.868V121.986C0.479126 118.808 0.651978 115.629 1.00647 112.465C1.70667 107.197 2.5094 101.851 4.72131 96.9697C5.65002 94.9131 6.87463 92.9297 8.65296 91.5C10.7535 89.7305 13.9703 89.5283 16.2994 90.9727C18.1891 92.2061 19.5485 94.0928 20.5416 96.0908C22.6071 100.286 23.6002 104.915 24.2506 109.518C24.7252 112.151 24.9039 114.823 25.1266 117.486C25.2115 120.437 25.6803 123.486 24.7076 126.349C23.3805 130.573 19.6451 133.828 15.3356 134.754C15.3385 138.167 15.3385 141.583 15.3385 144.999C20.3395 145.005 25.3405 145.002 30.3414 144.999C30.3414 102.718 30.3473 60.4336 30.3385 18.1523C30.3356 17.3232 30.4235 16.4004 31.0563 15.791C31.6539 15.1318 32.5826 14.9824 33.4293 14.9912C39.066 14.9941 44.6998 15 50.3366 14.9912C50.3717 12.4424 50.2721 9.8877 50.3805 7.33887C50.4215 5.96484 51.734 4.93652 53.067 5.00684C58.8239 4.98047 64.5836 5.00977 70.3434 4.99512C70.3551 3.92578 70.2584 2.83887 70.4782 1.78418C70.736 0.808594 71.6559 0.175781 72.611 0ZM11.8639 95.3027C10.1207 96.4307 9.50842 98.5371 8.6969 100.33C6.31506 107.341 5.49182 114.788 5.35413 122.162C5.26331 124.664 6.46155 127.187 8.5387 128.61C10.8326 130.274 14.0992 130.424 16.5426 128.991C18.7692 127.737 20.2604 125.288 20.319 122.73C20.3307 117.712 19.8385 112.699 18.942 107.766C18.1744 104.03 17.3073 100.225 15.3619 96.9023C14.6735 95.7539 13.2584 94.4531 11.8639 95.3027Z" fill="white" fill-opacity="0.2"/>
<path d="M41.0612 25.7871C41.6412 25.1338 42.5582 24.9931 43.3873 25.0019C68.0114 25.0019 92.6354 25.0049 117.259 24.999C118.153 24.9785 119.14 25.1631 119.726 25.9043C120.482 26.7451 120.318 27.955 120.347 28.9951C120.33 61.7168 120.35 94.4384 120.336 127.16C120.467 128.607 119.301 130.008 117.813 129.976C113.662 130.025 109.507 129.984 105.356 129.993C105.327 134.994 105.353 139.995 105.341 144.996C108.822 145.008 112.305 144.996 115.786 145.005C114.957 142.588 115.387 139.778 117.028 137.801C118.68 135.721 121.464 134.684 124.08 135.108C124.783 134.101 125.492 133.075 126.467 132.308C129.198 129.99 133.214 129.375 136.528 130.714C138.658 131.522 140.407 133.145 141.561 135.094C143.451 134.859 145.446 135.193 147.022 136.31C149.006 137.604 150.21 139.887 150.341 142.233V142.784C150.221 146.584 146.937 149.871 143.14 150H42.7223C41.2604 149.895 40.1998 148.515 40.3434 147.079C40.3346 107.818 40.3493 68.5547 40.3346 29.291C40.3698 28.1133 40.1442 26.707 41.0612 25.7871ZM45.3385 30.0058C45.3414 35.0009 45.3414 39.999 45.3385 44.9941C48.6696 45.0029 52.0036 44.9941 55.3346 44.997C55.3375 39.999 55.3375 35.0009 55.3346 30.0029C52.0036 30.0058 48.6696 29.997 45.3385 30.0058ZM60.3239 30.0439C60.3707 35.0215 60.3414 40.0019 60.3385 44.9795C63.6725 45.0205 67.0036 44.9824 70.3375 45C70.3463 39.999 70.3463 35.0009 70.3375 30C67.0006 30.0322 63.6608 29.9443 60.3239 30.0439ZM75.3502 29.997C75.3502 35.0039 75.3063 40.0107 75.3707 45.0175C78.6784 44.9883 81.983 44.9824 85.2907 45.0205C85.3844 40.0136 85.3375 35.0039 85.3141 29.997C81.9918 30.0058 78.6725 30.0058 75.3502 29.997ZM90.3414 30C90.3356 35.0009 90.3356 39.999 90.3414 44.997C93.6754 44.9912 97.0123 45.0088 100.346 44.9912C100.34 39.9961 100.343 35.0009 100.346 30.0088C97.0123 29.9941 93.6754 30.0058 90.3414 30ZM105.344 30.0029C105.341 35.0009 105.341 39.999 105.344 44.997C108.675 44.997 112.006 45 115.338 44.9941C115.34 39.999 115.34 35.0009 115.338 30.0058C112.006 30 108.675 30.0029 105.344 30.0029ZM45.3414 49.998C45.3385 54.999 45.3385 60 45.3414 65.0009C48.6754 65.0009 52.0065 65.0068 55.3375 65.0009C55.3375 60.0029 55.3317 55.0049 55.3405 50.0068C52.0065 49.9863 48.6754 50.0009 45.3414 49.998ZM60.3473 49.998C60.3444 54.999 60.3444 60 60.3473 65.0009C63.6784 65.0039 67.0094 65.0009 70.3405 65.0009C70.3434 60 70.3434 54.999 70.3434 49.998C67.0094 49.998 63.6784 49.9951 60.3473 49.998ZM75.3444 49.998C75.3414 54.999 75.3385 60.0029 75.3444 65.0039C78.6754 64.998 82.0065 65.0039 85.3375 65.0009C85.3375 60 85.3375 54.999 85.3375 50.0009C82.0065 49.9951 78.6754 49.998 75.3444 49.998ZM90.3385 50.0009C90.3385 54.999 90.3385 60 90.3385 65.0009C93.6725 65.0039 97.0065 65.0009 100.343 65.0009C100.346 60 100.343 54.999 100.343 49.998C97.0065 49.998 93.6725 49.9951 90.3385 50.0009ZM105.341 64.998C108.675 65.0039 112.009 65.0068 115.34 64.998C115.335 59.997 115.346 54.9961 115.335 49.998C112.006 49.9951 108.678 50.0009 105.35 49.9951C105.333 54.9961 105.35 59.997 105.341 64.998ZM45.3414 70.0049C45.3385 75 45.3385 79.998 45.3414 84.9961C48.6754 84.9902 52.0065 85.0136 55.3405 84.9814C55.3317 79.9892 55.3405 74.997 55.3346 70.0049C52.0036 69.999 48.6725 70.0019 45.3414 70.0049ZM60.3473 70.0049C60.3444 75 60.3444 79.998 60.3473 84.9961C63.6784 84.999 67.0094 84.9961 70.3405 84.9961C70.3434 79.998 70.3434 75 70.3405 70.0049C67.0094 70.0019 63.6784 69.999 60.3473 70.0049ZM75.3444 70.0049C75.3414 75 75.3414 79.998 75.3444 84.9961C78.6754 84.9961 82.0065 84.999 85.3375 84.9931C85.3405 79.998 85.3405 75 85.3375 70.0049C82.0065 69.999 78.6754 70.0019 75.3444 70.0049ZM90.3385 70.0049C90.3356 75 90.3356 79.998 90.3385 84.9931C93.6725 84.999 97.0065 84.9961 100.34 84.9961C100.346 79.998 100.343 75 100.343 70.0049C97.0094 70.0019 93.6725 69.999 90.3385 70.0049ZM105.344 70.0107C105.341 75 105.35 79.9892 105.339 84.9785C108.675 85.0019 112.012 85.0195 115.349 84.9697C115.335 79.9892 115.335 75.0058 115.346 70.0254C112.012 69.9785 108.678 70.0049 105.344 70.0107ZM45.3444 89.997C45.3356 94.998 45.3414 99.999 45.3414 105C48.6696 105.006 51.9948 104.991 55.3229 105.009C55.3551 100.005 55.3287 95.0009 55.3375 89.997C52.0065 89.9941 48.6754 89.997 45.3444 89.997ZM60.3473 89.997C60.3444 94.998 60.3473 99.999 60.3473 105C63.6784 105.003 67.0094 105.003 70.3434 105C70.3405 99.999 70.3463 94.998 70.3405 89.997C67.0094 89.997 63.6784 89.9941 60.3473 89.997ZM75.3444 89.997C75.3385 94.998 75.3414 99.999 75.3444 105C78.6725 105 82.0036 105.003 85.3346 105C85.3375 99.999 85.3405 94.998 85.3346 89.997C82.0036 89.9941 78.6754 89.997 75.3444 89.997ZM90.3385 89.997C90.3356 94.998 90.3385 99.999 90.3385 104.997C93.6725 105.003 97.0065 105 100.343 105C100.343 99.999 100.346 94.998 100.343 89.997C97.0065 89.997 93.6725 89.9941 90.3385 89.997ZM105.344 90C105.347 95.001 105.336 100.002 105.347 105.003C108.678 105 112.006 105 115.335 105.003C115.346 100.002 115.338 95.001 115.34 90C112.009 89.9941 108.675 89.9941 105.344 90ZM45.3385 110.004C45.3414 114.999 45.3444 119.994 45.3356 124.989C48.6696 125.007 52.0006 124.992 55.3346 124.995C55.3375 119.997 55.3405 114.999 55.3317 110.001C52.0006 110.004 48.6696 109.995 45.3385 110.004ZM60.3209 110.048C60.3942 115.034 60.2975 120.02 60.3707 125.007C63.693 124.983 67.0153 125.001 70.3375 124.998C70.3434 119.997 70.3463 114.999 70.3375 109.998C66.9977 110.036 63.6578 109.936 60.3209 110.048ZM75.3532 109.995C75.3327 114.999 75.3327 120 75.3532 125.004C78.6666 124.998 81.9801 124.978 85.2965 125.016C85.3756 120.009 85.3493 114.996 85.3082 109.989C81.9889 110.01 78.6725 110.001 75.3532 109.995ZM90.3414 110.001C90.3356 114.999 90.3356 119.997 90.3414 124.998C93.6754 124.989 97.0123 125.01 100.346 124.986C100.338 119.994 100.346 114.999 100.343 110.007C97.0094 109.995 93.6754 110.004 90.3414 110.001ZM105.347 110.004C105.341 114.999 105.344 119.997 105.344 124.995C108.675 124.998 112.009 124.998 115.34 124.995C115.34 119.997 115.343 114.999 115.338 110.004C112.006 109.998 108.678 110.001 105.347 110.004ZM45.3414 129.996C45.3385 134.997 45.3385 139.998 45.3414 145.002C48.6725 144.999 52.0065 145.005 55.3375 144.999C55.3405 140.004 55.3258 135.009 55.3463 130.017C52.0123 129.973 48.6754 130.008 45.3414 129.996ZM60.3473 129.999C60.3444 135 60.3444 139.998 60.3473 144.999C63.6784 145.002 67.0094 145.002 70.3434 144.999C70.3434 139.998 70.3434 134.997 70.3405 129.996C67.0094 129.996 63.6784 129.993 60.3473 129.999ZM75.3444 129.996C75.3414 134.997 75.3414 140.001 75.3444 145.002C78.6754 144.999 82.0065 145.002 85.3375 144.999C85.3375 139.998 85.3405 134.997 85.3346 129.999C82.0036 129.996 78.6725 129.996 75.3444 129.996ZM90.3385 129.999C90.3385 135 90.3385 139.998 90.3356 144.999C93.6725 145.005 97.0065 144.999 100.343 144.999C100.343 139.998 100.343 135 100.343 129.999C97.0065 129.996 93.6725 129.993 90.3385 129.999ZM131.419 135.22C130.012 135.712 128.756 136.761 128.26 138.196C127.877 139.178 127.431 140.341 126.3 140.643C124.871 141.234 123.664 139.617 122.228 140.112C120.719 140.432 119.884 142.336 120.664 143.669C121.159 144.665 122.328 145.061 123.38 145.005C129.837 144.99 136.291 145.025 142.745 144.987C143.943 145.002 145.106 144.129 145.27 142.913C145.651 141.299 143.966 139.778 142.399 140.077C141.432 140.291 140.53 141.029 139.502 140.678C138.333 140.437 137.826 139.271 137.451 138.27C136.654 135.882 133.821 134.432 131.419 135.22Z" fill="white" fill-opacity="0.2"/>
</svg>
