<svg width="150" height="150" viewBox="0 0 150 150" fill="none" xmlns="http://www.w3.org/2000/svg">
<path d="M6.88184 0H63.2695C65.8887 0.336914 68.3174 2.01855 69.3574 4.47363C70.1748 6.19922 69.9815 8.14746 70.002 9.99609C80.3408 10.002 90.6826 10.002 101.024 9.99609C111.354 20.2764 121.632 30.6123 131.95 40.9043C132.188 41.1826 132.565 41.4463 132.498 41.8682C132.501 54.5771 132.501 67.2861 132.498 79.998C130.831 80.001 129.167 80.0039 127.503 79.9951C127.494 68.332 127.506 56.666 127.497 45.0029C117.51 45.0088 107.522 44.9795 97.5352 45.0176C97.4531 35.0127 97.5264 25.0078 97.4971 15C88.333 15 79.169 15 70.0049 15.0029C69.9902 35.0039 70.0049 55.0049 69.999 75.0088C69.9815 76.8398 70.1748 78.7646 69.3779 80.4785C68.2324 83.2148 65.3496 85.0693 62.3848 84.999C49.0928 85.0049 35.7979 84.9961 22.5029 85.002C22.4971 105 22.5 124.998 22.5029 144.999C57.501 145.002 92.499 145.002 127.497 144.996C127.5 135 127.503 125.004 127.497 115.008C129.164 114.993 130.831 114.999 132.498 115.002C132.504 126.668 132.498 138.334 132.501 150H17.499C17.499 128.335 17.499 106.667 17.499 85.002C14.0098 84.9756 10.5176 85.043 7.02832 84.9727C3.4541 84.835 0.401367 81.8115 0 78.2959V6.73828C0.375 3.23438 3.35742 0.28125 6.88184 0ZM7.09277 5.04492C5.87109 5.20312 4.93945 6.38672 5.00391 7.6084C4.99512 30.8584 4.99805 54.1084 5.00391 77.3584C4.89844 78.7793 6.16992 80.0801 7.59668 79.9951C25.3799 80.0098 43.1631 79.9951 60.9434 80.001C61.7051 79.9863 62.4814 80.0654 63.2256 79.8838C64.3066 79.5762 65.0537 78.4775 64.9951 77.3613C65.0068 54.6006 64.9951 31.8398 65.001 9.0791C64.9981 8.39355 65.0332 7.70508 64.9424 7.02246C64.752 5.84766 63.6094 4.9541 62.4258 5.00684C44.6514 4.99219 26.874 5.00684 9.09668 4.99805C8.42871 5.00098 7.75781 4.96875 7.09277 5.04492ZM102.504 18.5449C102.495 25.6934 102.504 32.8418 102.498 39.9902C109.649 40.0137 116.801 39.9932 123.952 39.999C116.821 32.8301 109.667 25.6816 102.504 18.5449Z" fill="white" fill-opacity="0.2"/>
<path d="M7.50294 7.50293C25.834 7.5 44.1651 7.49707 62.499 7.50293C62.502 13.3359 62.502 19.166 62.4961 24.999C44.1651 25.0019 25.834 25.0019 7.50294 24.999C7.49709 19.166 7.49709 13.333 7.50294 7.50293ZM12.5039 12.5039C12.501 15 12.4981 17.499 12.5039 19.998C27.501 20.001 42.4981 20.001 57.4981 19.9951C57.501 17.499 57.501 15 57.4981 12.5039C42.4981 12.498 27.501 12.501 12.5039 12.5039Z" fill="white" fill-opacity="0.2"/>
<path d="M13.5908 27.7002C15.5684 27.293 17.6133 27.5889 19.623 27.4951C21.8936 27.3281 24.1641 28.8486 24.7852 31.0547C25.2188 33.0732 24.9053 35.165 25.002 37.2129C25.1016 39.1406 24.0264 41.0713 22.292 41.9385C20.291 42.9258 17.9766 42.3398 15.832 42.5039C13.8897 42.6914 11.8213 41.8916 10.7842 40.1836C9.70313 38.6103 10.0547 36.6357 10.002 34.8486C10.0488 33.3545 9.78516 31.7695 10.4707 30.3779C11.0713 29.0976 12.2314 28.0957 13.5908 27.7002ZM15 32.5049C14.9971 34.1689 15 35.833 15 37.4971C16.6641 37.5029 18.3311 37.5 19.998 37.4971C20.001 35.833 20.001 34.1689 19.998 32.5019C18.3311 32.499 16.667 32.4961 15 32.5049Z" fill="white" fill-opacity="0.2"/>
<path d="M31.1514 27.6826C33.1465 27.3076 35.1973 27.583 37.2158 27.498C39.2021 27.3896 41.1885 28.5439 42.0176 30.3603C42.6269 31.5674 42.4893 32.956 42.501 34.2656C42.4746 35.5518 42.5566 36.8408 42.4512 38.1269C42.2197 40.3359 40.3242 42.2285 38.1152 42.4541C36.8379 42.5566 35.5547 42.4746 34.2744 42.501C33.0264 42.4834 31.7109 42.6269 30.5391 42.0967C28.7314 41.3467 27.4717 39.4541 27.5039 37.4912C27.5039 35.7422 27.4775 33.9932 27.5156 32.2471C27.5713 30.1494 29.1328 28.2246 31.1514 27.6826ZM32.5019 32.5019C32.499 34.166 32.499 35.833 32.5019 37.4971C34.166 37.5029 35.833 37.5 37.5 37.5C37.5 35.833 37.5 34.166 37.4971 32.5019C35.833 32.499 34.166 32.499 32.5019 32.5019Z" fill="white" fill-opacity="0.2"/>
<path d="M48.958 27.6094C50.8828 27.3779 52.8369 27.5537 54.7734 27.4981C56.7539 27.4043 58.7168 28.582 59.5342 30.3926C60.2432 31.8809 59.9356 33.5625 60 35.1504C59.9531 36.627 60.208 38.1943 59.543 39.5772C58.7754 41.2998 56.9678 42.4893 55.0811 42.4922C53.3174 42.5039 51.5566 42.5156 49.7959 42.4863C47.3086 42.4512 45.0967 40.2803 45.0176 37.7959C44.9854 35.9443 44.9883 34.0899 45.0147 32.2412C45.0762 30.0352 46.8018 28.0371 48.958 27.6094ZM50.0039 32.502C49.998 34.166 49.9981 35.833 50.001 37.4971C51.668 37.5 53.335 37.5029 55.002 37.4942C54.999 35.8301 55.002 34.169 54.999 32.5049C53.332 32.4961 51.668 32.499 50.0039 32.502Z" fill="white" fill-opacity="0.2"/>
<path d="M13.289 45.3017C15.3398 44.7129 17.5137 45.1201 19.6172 44.9971C21.624 44.8623 23.6572 45.999 24.5039 47.8359C25.1836 49.1719 24.9668 50.707 24.999 52.1484C24.9668 53.417 25.0898 54.6973 24.9023 55.9599C24.5127 58.1631 22.4678 59.9326 20.2265 59.9853C18.3662 60.0088 16.5029 60.0176 14.6426 59.9795C12.3838 59.8711 10.3799 58.0195 10.0635 55.7842C9.92284 53.8945 10.0312 51.9902 10.0019 50.0947C9.93163 48.0088 11.3203 45.9902 13.289 45.3017ZM14.9912 50.0185C15.0117 51.6767 14.9941 53.3379 15 54.999C16.6553 55.0107 18.3076 54.9756 19.9599 55.0195C20.0478 53.3496 19.9775 51.6738 19.998 50.001C18.3281 50.0068 16.6582 49.9805 14.9912 50.0185Z" fill="white" fill-opacity="0.2"/>
<path d="M30.876 45.2695C32.0654 44.8652 33.3398 45.0322 34.5732 45C35.8389 45.0322 37.1103 44.918 38.3701 45.082C40.623 45.4336 42.4482 47.5107 42.4863 49.7959C42.5156 51.5537 42.5039 53.3115 42.4922 55.0693C42.4951 56.9531 41.3086 58.7637 39.5947 59.5342C38.1211 60.2432 36.4482 59.9355 34.875 60C33.5127 59.9502 32.0918 60.1787 30.7822 59.6924C28.9775 59.0537 27.6269 57.29 27.5244 55.3711C27.4629 54.1055 27.5185 52.834 27.498 51.5654C27.5097 50.4668 27.4043 49.3213 27.8086 48.2725C28.3154 46.8809 29.4726 45.7471 30.876 45.2695ZM32.5019 50.0039C32.5019 51.668 32.4873 53.3349 32.5107 54.999C34.1719 54.999 35.833 54.999 37.4971 55.0019C37.5029 53.335 37.5 51.668 37.4971 50.001C35.833 49.998 34.166 49.998 32.5019 50.0039Z" fill="white" fill-opacity="0.2"/>
<path d="M48.4307 45.252C49.5351 44.8857 50.7158 45.0205 51.8584 45C53.124 45.0264 54.3926 44.9385 55.6553 45.0498C57.9053 45.2988 59.8066 47.2705 59.9707 49.5264C60.041 50.7861 59.9795 52.0459 60 53.3057C59.9824 54.4629 60.1142 55.6699 59.6719 56.7715C58.9863 58.6465 57.082 59.9941 55.081 59.9912C53.3232 60.0029 51.5625 60.0146 49.8047 59.9883C47.335 59.9561 45.1318 57.8232 45.0205 55.3564C44.9766 53.5137 44.9971 51.665 45.0117 49.8223C45.041 47.7773 46.4883 45.8701 48.4307 45.252ZM50.0039 50.001C49.9922 51.6592 50.0127 53.3174 49.9892 54.9785C51.6592 55.0283 53.3291 54.9902 54.999 54.999C55.0107 53.3438 54.9756 51.6914 55.0224 50.0361C53.3496 49.9541 51.6767 50.0186 50.0039 50.001Z" fill="white" fill-opacity="0.2"/>
<path d="M80.001 52.5C81.6651 52.5 83.3291 52.4971 84.9961 52.5C85.0049 54.167 85.002 55.831 84.9961 57.498C83.3321 57.501 81.6651 57.501 80.001 57.498C79.9981 55.831 79.9951 54.1641 80.001 52.5Z" fill="white" fill-opacity="0.2"/>
<path d="M90 52.5C100.002 52.5 110.001 52.4941 120 52.5029C119.988 54.1699 120.026 55.8398 119.98 57.5098C109.986 57.4863 99.9932 57.5098 90 57.4951C90 55.831 89.9971 54.1641 90 52.5Z" fill="white" fill-opacity="0.2"/>
<path d="M14.4434 62.5342C16.2715 62.458 18.1055 62.5137 19.9336 62.502C21.8643 62.4551 23.748 63.6446 24.5361 65.4053C25.1895 66.7529 24.9609 68.2852 24.999 69.7295C24.9639 71.0039 25.1045 72.2959 24.8818 73.5586C24.4512 75.7207 22.4355 77.4287 20.2295 77.4873C18.457 77.5137 16.6846 77.502 14.9121 77.4932C13.0107 77.4903 11.1943 76.2774 10.4355 74.5371C9.77636 73.1192 10.0576 71.5196 10.002 70.0137C10.0576 68.5752 9.7998 67.0723 10.3359 65.6953C10.9805 63.9903 12.624 62.71 14.4434 62.5342ZM15.0029 67.5C14.9971 69.1641 15.0029 70.8311 15 72.4951C16.6641 72.5039 18.3311 72.501 19.998 72.4981C20.0068 70.8369 19.9893 69.1787 20.0098 67.5205C18.3398 67.4737 16.6728 67.5117 15.0029 67.5Z" fill="white" fill-opacity="0.2"/>
<path d="M32.0303 62.5283C33.9433 62.4727 35.8623 62.4961 37.7783 62.5137C40.084 62.5869 42.1523 64.4824 42.4394 66.7705C42.5654 68.0479 42.4746 69.334 42.501 70.6143C42.4746 71.8682 42.6387 73.1865 42.1318 74.3731C41.4111 76.2158 39.5098 77.5107 37.5293 77.4961C35.7685 77.499 34.0049 77.5166 32.2441 77.4873C30.3457 77.4199 28.5732 76.1484 27.873 74.3877C27.3603 73.1982 27.5244 71.874 27.501 70.6172C27.5273 69.3369 27.4336 68.0537 27.5566 66.7793C27.832 64.5557 29.7949 62.6865 32.0303 62.5283ZM32.5195 67.4971C32.4785 69.1611 32.5078 70.8311 32.5019 72.4981C34.166 72.501 35.833 72.501 37.5 72.4981C37.4971 70.8311 37.5088 69.1641 37.4941 67.4971C35.8359 67.5 34.1777 67.5029 32.5195 67.4971Z" fill="white" fill-opacity="0.2"/>
<path d="M49.0752 62.5869C50.3848 62.4141 51.709 62.5342 53.0215 62.499C54.2666 62.5312 55.5645 62.3555 56.7568 62.8184C58.623 63.498 59.9736 65.376 59.9883 67.3682C60.0088 69.1348 60.0117 70.9014 59.9883 72.665C59.9766 75.2402 57.668 77.5107 55.0957 77.4902C53.3262 77.5049 51.5596 77.5137 49.793 77.4873C47.3584 77.4492 45.1787 75.3691 45.0293 72.9404C44.9678 71.0947 45.0059 69.2461 45.0088 67.4004C45 65.0947 46.8105 62.9707 49.0752 62.5869ZM49.9893 67.5205C50.0127 69.1787 49.9922 70.8398 50.001 72.498C51.6504 72.5156 53.2998 72.4629 54.9492 72.5332C55.0635 70.8574 54.9727 69.1787 54.999 67.5C53.3291 67.5088 51.6592 67.4766 49.9893 67.5205Z" fill="white" fill-opacity="0.2"/>
<path d="M80.0039 62.499C81.6533 62.4902 83.3057 62.5166 84.9551 62.4814C85.0518 64.1514 84.9785 65.8242 84.999 67.4971C83.3321 67.5029 81.6651 67.5029 79.9981 67.4971C80.001 65.8301 79.9922 64.1631 80.0039 62.499Z" fill="white" fill-opacity="0.2"/>
<path d="M90.0029 62.499C100.002 62.499 110.001 62.4961 120 62.502C120 64.1689 120.012 65.8359 119.991 67.5029C109.995 67.4912 99.9961 67.5088 89.9971 67.4941C90 65.8301 89.9941 64.1631 90.0029 62.499Z" fill="white" fill-opacity="0.2"/>
<path d="M80.0068 72.4981C81.6768 72.5274 83.3496 72.4424 85.0195 72.542C84.9463 74.2002 85.0752 75.8672 84.9463 77.5254C83.2998 77.4756 81.6504 77.5108 80.0039 77.502C79.9951 75.835 79.9951 74.1651 80.0068 72.4981Z" fill="white" fill-opacity="0.2"/>
<path d="M90.0029 72.498C100.002 72.501 110.001 72.4951 119.997 72.501C120.003 74.168 120.003 75.832 120 77.499C110.001 77.5049 100.002 77.499 90.0029 77.502C89.9941 75.835 89.9971 74.165 90.0029 72.498Z" fill="white" fill-opacity="0.2"/>
<path d="M140.754 77.8301C143.373 77.2324 146.294 78.1172 148.075 80.1445C149.965 82.2568 150.457 85.4795 149.3 88.0635C148.714 89.5166 147.533 90.5859 146.449 91.667C132.686 105.434 118.916 119.197 105.152 132.967C104.449 133.729 103.438 134.048 102.533 134.493C98.6455 136.26 94.7783 138.079 90.8819 139.825C88.9834 140.681 86.7979 138.475 87.6885 136.585C89.5635 132.419 91.5117 128.285 93.4043 124.128C93.6651 123.548 93.9258 122.95 94.3887 122.505C108.551 108.34 122.725 94.1895 136.881 80.0186C137.927 78.9375 139.28 78.1553 140.754 77.8301ZM138.902 85.0606C140.077 86.2412 141.255 87.419 142.438 88.5908C143.288 87.6123 144.577 86.8682 144.882 85.5293C145.225 84.0381 143.912 82.5 142.389 82.5908C140.813 82.6084 139.972 84.1436 138.902 85.0606ZM133.62 90.3457C134.798 91.5176 135.967 92.7012 137.153 93.8672C137.745 93.2871 138.349 92.7188 138.894 92.0947C137.695 90.9522 136.55 89.7598 135.369 88.5996C134.78 89.1768 134.2 89.7598 133.62 90.3457ZM98.2207 125.78C97.0723 127.919 96.1641 130.192 95.1123 132.384C97.1426 131.484 99.1524 130.535 101.174 129.609C101.95 129.261 102.451 128.534 103.061 127.972C113.247 117.806 123.396 107.602 133.605 97.4561C132.469 96.2344 131.259 95.0801 130.078 93.9023C119.455 104.525 108.814 115.131 98.2207 125.78Z" fill="white" fill-opacity="0.2"/>
<path d="M79.998 82.5059C81.665 82.4971 83.332 82.4971 84.999 82.5059C84.9756 84.1758 85.0576 85.8516 84.9521 87.5186C83.3027 87.4805 81.6533 87.5068 80.0068 87.5039C79.9922 85.8369 80.001 84.1699 79.998 82.5059Z" fill="white" fill-opacity="0.2"/>
<path d="M90 82.5059C99.9961 82.4912 109.995 82.5059 119.994 82.4971C120.009 84.1641 120 85.8311 120 87.498C110.001 87.5039 100.002 87.501 90.0029 87.501C89.9941 85.834 90 84.1699 90 82.5059Z" fill="white" fill-opacity="0.2"/>
<path d="M56.0332 90.0469C61.1953 89.7363 66.4512 91.0723 70.8193 93.8525C75.3486 96.7031 78.9228 101.045 80.833 106.046C82.8105 111.164 83.0273 116.938 81.4424 122.191C79.9951 127.043 77.0185 131.42 73.0517 134.563C69.0469 137.78 64.0195 139.69 58.8896 139.957C53.5664 140.268 48.1582 138.806 43.7197 135.853C39.0469 132.779 35.458 128.089 33.7353 122.766C31.7607 116.763 32.1709 110.013 34.8984 104.309C38.6631 96.1846 47.0742 90.4688 56.0332 90.0469ZM56.0713 95.0508C49.793 95.4463 43.8545 99.0469 40.5469 104.388C38.2119 108.085 37.1631 112.567 37.5937 116.921C38.0244 121.652 40.2422 126.19 43.6904 129.46C47.0478 132.691 51.5742 134.681 56.2265 134.956C60.5742 135.237 65.0039 134.051 68.6162 131.61C72.5391 129 75.4805 124.951 76.7461 120.41C77.7422 116.886 77.7451 113.086 76.7461 109.564C75.4834 105.026 72.5391 100.986 68.6191 98.376C64.9658 95.9033 60.4687 94.7315 56.0713 95.0508Z" fill="white" fill-opacity="0.2"/>
<path d="M54.9844 100.028C56.6543 99.9639 58.3272 100.017 60 99.999C59.9971 100.913 60 101.827 60.0059 102.741C62.4463 103.23 64.8779 104.391 66.3457 106.468C67.0928 107.49 67.459 108.738 67.5176 109.995C65.874 110.007 64.2275 109.989 62.5811 110.007C62.0596 108.51 60.4131 107.897 58.9834 107.631C57.0088 107.332 54.791 107.549 53.1885 108.844C52.6231 109.263 52.2393 110.112 52.7813 110.713C53.9561 112.137 55.9482 112.474 57.7002 112.503C60.3486 112.547 63.0732 113.32 65.1035 115.081C66.4805 116.268 67.4531 117.987 67.4912 119.833C67.5703 121.781 66.5742 123.645 65.1152 124.89C63.6797 126.144 61.8691 126.882 60.0147 127.248C59.9971 128.165 59.9971 129.082 60 129.999C58.3242 129.97 56.6426 130.066 54.9697 129.949C55.0107 129.05 55.0049 128.153 54.9961 127.257C52.6465 126.779 50.3086 125.692 48.8174 123.753C47.9736 122.689 47.5283 121.354 47.4844 120C49.1338 120.003 50.7832 119.991 52.4326 120.009C52.875 121.321 54.2549 121.945 55.5029 122.262C57.5273 122.71 59.8154 122.546 61.5645 121.354C62.1826 120.932 62.8447 120.062 62.2559 119.344C61.1397 117.902 59.165 117.545 57.4424 117.501C54.3838 117.472 51.1641 116.461 49.0957 114.111C47.5723 112.415 47.042 109.854 47.9502 107.736C49.1367 104.9 52.1104 103.304 54.999 102.738C55.002 101.836 55.0049 100.931 54.9844 100.028Z" fill="white" fill-opacity="0.2"/>
</svg>
